<svg xmlns="http://www.w3.org/2000/svg" viewBox="0 0 800 400">
  <defs>
    <linearGradient id="bgGradient" x1="0%" y1="0%" x2="100%" y2="100%">
      <stop offset="0%" style="stop-color:#1a2833"/>
      <stop offset="50%" style="stop-color:#243442"/>
      <stop offset="100%" style="stop-color:#1a2833"/>
    </linearGradient>
    <!-- Chacma baboon: dark grey-brown/olive-brown fur -->
    <linearGradient id="chacmaFur" x1="0%" y1="0%" x2="100%" y2="100%">
      <stop offset="0%" style="stop-color:#5A5449"/>
      <stop offset="50%" style="stop-color:#4A443D"/>
      <stop offset="100%" style="stop-color:#3D3833"/>
    </linearGradient>
    <!-- Dark face skin - Chacma have dark/black facial skin -->
    <linearGradient id="chacmaFace" x1="0%" y1="0%" x2="100%" y2="100%">
      <stop offset="0%" style="stop-color:#2D2520"/>
      <stop offset="100%" style="stop-color:#1F1A17"/>
    </linearGradient>
    <linearGradient id="deskGradient" x1="0%" y1="0%" x2="0%" y2="100%">
      <stop offset="0%" style="stop-color:#5C4033"/>
      <stop offset="100%" style="stop-color:#3E2723"/>
    </linearGradient>
    <linearGradient id="heroKeyboardGradient" x1="0%" y1="0%" x2="0%" y2="100%">
      <stop offset="0%" style="stop-color:#4A4A4A"/>
      <stop offset="100%" style="stop-color:#2D2D2D"/>
    </linearGradient>
    <linearGradient id="screenGlow" x1="50%" y1="0%" x2="50%" y2="100%">
      <stop offset="0%" style="stop-color:#4A90A4" stop-opacity="0.3"/>
      <stop offset="100%" style="stop-color:#1a2833" stop-opacity="0"/>
    </linearGradient>
    <filter id="heroGlow">
      <feGaussianBlur stdDeviation="3" result="coloredBlur"/>
      <feMerge>
        <feMergeNode in="coloredBlur"/>
        <feMergeNode in="SourceGraphic"/>
      </feMerge>
    </filter>
    <filter id="textGlow">
      <feGaussianBlur stdDeviation="2" result="coloredBlur"/>
      <feMerge>
        <feMergeNode in="coloredBlur"/>
        <feMergeNode in="SourceGraphic"/>
      </feMerge>
    </filter>
  </defs>

  <!-- Background -->
  <rect width="800" height="400" fill="url(#bgGradient)"/>

  <!-- Screen glow effect -->
  <ellipse cx="400" cy="100" rx="300" ry="150" fill="url(#screenGlow)"/>

  <!-- Table Mountain silhouette - Western Cape landmark -->
  <path d="M0 380 L50 340 L80 345 L150 300 L180 300 L250 280 L350 280 L380 300 L420 300 L450 320 L500 380 Z" fill="#1a2020" opacity="0.4"/>

  <!-- Desk surface -->
  <path d="M0 320 Q200 300, 400 310 Q600 320, 800 300 L800 400 L0 400 Z" fill="url(#deskGradient)"/>

  <!-- Monitor stand -->
  <rect x="370" y="240" width="60" height="40" fill="#333"/>
  <ellipse cx="400" cy="285" rx="50" ry="8" fill="#2a2a2a"/>

  <!-- Monitor -->
  <rect x="250" y="80" width="300" height="170" rx="8" fill="#1a1a1a" stroke="#333" stroke-width="3"/>
  <rect x="260" y="90" width="280" height="145" rx="4" fill="#0d1117"/>

  <!-- Terminal screen content -->
  <g font-family="monospace" font-size="12" fill="#4CAF50">
    <text x="275" y="115">$ baboon</text>
    <text x="275" y="135" fill="#D4922A">Starting typing practice...</text>
  </g>

  <!-- Block letters on screen -->
  <g fill="#4CAF50" filter="url(#heroGlow)">
    <!-- T -->
    <rect x="280" y="155" width="25" height="5"/>
    <rect x="288" y="155" width="8" height="30"/>
    <!-- Y -->
    <rect x="315" y="155" width="5" height="12"/>
    <rect x="330" y="155" width="5" height="12"/>
    <rect x="317" y="165" width="16" height="5"/>
    <rect x="322" y="168" width="6" height="17"/>
    <!-- P -->
    <rect x="345" y="155" width="5" height="30"/>
    <rect x="345" y="155" width="18" height="5"/>
    <rect x="358" y="155" width="5" height="15"/>
    <rect x="345" y="165" width="18" height="5"/>
    <!-- E -->
    <rect x="375" y="155" width="5" height="30"/>
    <rect x="375" y="155" width="18" height="5"/>
    <rect x="375" y="167" width="14" height="4"/>
    <rect x="375" y="180" width="18" height="5"/>
  </g>

  <!-- WPM Bar on screen -->
  <rect x="270" y="200" width="260" height="15" rx="3" fill="#1f2937"/>
  <rect x="272" y="202" width="180" height="11" rx="2" fill="#D4922A"/>
  <text x="460" y="212" font-family="monospace" font-size="10" fill="#D4922A">75 WPM</text>

  <!-- Keyboard on desk -->
  <rect x="280" y="320" width="240" height="55" rx="6" fill="url(#heroKeyboardGradient)" stroke="#555" stroke-width="2"/>

  <!-- Keyboard keys -->
  <g fill="#555">
    <!-- Row 1 -->
    <rect x="290" y="328" width="16" height="12" rx="2"/>
    <rect x="310" y="328" width="16" height="12" rx="2"/>
    <rect x="330" y="328" width="16" height="12" rx="2" fill="#4CAF50"/>
    <rect x="350" y="328" width="16" height="12" rx="2"/>
    <rect x="370" y="328" width="16" height="12" rx="2"/>
    <rect x="390" y="328" width="16" height="12" rx="2"/>
    <rect x="410" y="328" width="16" height="12" rx="2"/>
    <rect x="430" y="328" width="16" height="12" rx="2"/>
    <rect x="450" y="328" width="16" height="12" rx="2"/>
    <rect x="470" y="328" width="16" height="12" rx="2"/>
    <rect x="490" y="328" width="16" height="12" rx="2" fill="#D4922A"/>
    <!-- Row 2 -->
    <rect x="295" y="344" width="16" height="12" rx="2"/>
    <rect x="315" y="344" width="16" height="12" rx="2"/>
    <rect x="335" y="344" width="16" height="12" rx="2"/>
    <rect x="355" y="344" width="16" height="12" rx="2"/>
    <rect x="375" y="344" width="16" height="12" rx="2"/>
    <rect x="395" y="344" width="16" height="12" rx="2"/>
    <rect x="415" y="344" width="16" height="12" rx="2"/>
    <rect x="435" y="344" width="16" height="12" rx="2"/>
    <rect x="455" y="344" width="16" height="12" rx="2"/>
    <rect x="475" y="344" width="16" height="12" rx="2"/>
    <!-- Row 3 - Space bar -->
    <rect x="330" y="360" width="140" height="10" rx="2"/>
  </g>

  <!-- CHACMA BABOON sitting at desk -->
  <!-- Body - dark grey-brown fur -->
  <ellipse cx="150" cy="310" rx="70" ry="50" fill="url(#chacmaFur)"/>

  <!-- Head - characteristic Chacma shape with prominent brow -->
  <ellipse cx="150" cy="215" rx="50" ry="45" fill="url(#chacmaFur)"/>

  <!-- Prominent brow ridge - KEY Chacma feature -->
  <path d="M95 185 Q120 170, 150 175 Q180 170, 205 185 Q210 195, 205 200 Q180 188, 150 192 Q120 188, 95 200 Q90 195, 95 185" fill="#4A443D"/>

  <!-- Long dog-like muzzle - THE distinctive Chacma feature -->
  <path d="M110 200 Q95 225, 100 260 Q115 285, 150 290 Q185 285, 200 260 Q205 225, 190 200 Q175 190, 150 188 Q125 190, 110 200" fill="url(#chacmaFace)"/>

  <!-- Muzzle ridges - Chacma have pronounced parallel ridges -->
  <path d="M115 210 Q120 240, 125 265" fill="none" stroke="#3A3430" stroke-width="4" opacity="0.6"/>
  <path d="M185 210 Q180 240, 175 265" fill="none" stroke="#3A3430" stroke-width="4" opacity="0.6"/>
  <path d="M130 215 Q132 245, 138 260" fill="none" stroke="#3A3430" stroke-width="2" opacity="0.4"/>
  <path d="M170 215 Q168 245, 162 260" fill="none" stroke="#3A3430" stroke-width="2" opacity="0.4"/>

  <!-- Nose - at end of long muzzle, dark -->
  <ellipse cx="150" cy="278" rx="14" ry="9" fill="#1A1512"/>
  <!-- Nostrils - set wide apart -->
  <ellipse cx="140" cy="280" rx="4" ry="3" fill="#0D0A08"/>
  <ellipse cx="160" cy="280" rx="4" ry="3" fill="#0D0A08"/>

  <!-- Smugly half-lidded eyes - "I'm faster than you humans" look -->
  <ellipse cx="120" cy="198" rx="12" ry="10" fill="#1A1512"/>
  <ellipse cx="180" cy="198" rx="12" ry="10" fill="#1A1512"/>
  <ellipse cx="120" cy="200" rx="9" ry="6" fill="#FFF8E7"/>
  <ellipse cx="180" cy="200" rx="9" ry="6" fill="#FFF8E7"/>
  <circle cx="124" cy="200" r="5" fill="#4A3728"/>
  <circle cx="184" cy="200" r="5" fill="#4A3728"/>
  <circle cx="125" cy="198" r="2" fill="white"/>
  <circle cx="185" cy="198" r="2" fill="white"/>
  <!-- Half-closed superior lids -->
  <path d="M108 194 Q120 188, 132 194" fill="#3D3833" stroke="none"/>
  <path d="M168 194 Q180 188, 192 194" fill="#3D3833" stroke="none"/>

  <!-- Raised eyebrows - smug superiority over slow humans -->
  <path d="M100 188 Q120 182, 132 188" fill="none" stroke="#3D3833" stroke-width="4" stroke-linecap="round"/>
  <path d="M168 188 Q180 182, 200 188" fill="none" stroke="#3D3833" stroke-width="4" stroke-linecap="round"/>

  <!-- Ears - smaller, rounded, set back - typical Chacma -->
  <ellipse cx="90" cy="180" rx="14" ry="20" fill="url(#chacmaFur)"/>
  <ellipse cx="90" cy="180" rx="8" ry="12" fill="#2D2520"/>
  <ellipse cx="210" cy="180" rx="14" ry="20" fill="url(#chacmaFur)"/>
  <ellipse cx="210" cy="180" rx="8" ry="12" fill="#2D2520"/>

  <!-- Smug self-satisfied smirk - better than dumbass humans -->
  <path d="M130 282 Q150 295, 170 282" fill="none" stroke="#0D0A08" stroke-width="3" stroke-linecap="round"/>
  <!-- Knowing upturn at corner -->
  <path d="M170 282 Q175 278, 178 273" fill="none" stroke="#0D0A08" stroke-width="2.5" stroke-linecap="round"/>
  <!-- Slight cheek bulge from smirking -->
  <ellipse cx="178" cy="268" rx="6" ry="4" fill="#2D2520" opacity="0.3"/>

  <!-- Left arm reaching to keyboard - dark fur -->
  <path d="M95 280 Q130 310, 280 345" fill="none" stroke="url(#chacmaFur)" stroke-width="30" stroke-linecap="round"/>
  <!-- Hand - dark skin -->
  <ellipse cx="280" cy="345" rx="18" ry="12" fill="#2D2520"/>

  <!-- Right arm reaching to keyboard -->
  <path d="M205 280 Q230 310, 380 345" fill="none" stroke="url(#chacmaFur)" stroke-width="30" stroke-linecap="round"/>
  <!-- Hand - dark skin -->
  <ellipse cx="380" cy="345" rx="18" ry="12" fill="#2D2520"/>

  <!-- Fingers typing - dark skin -->
  <g fill="#2D2520">
    <circle cx="270" cy="348" r="5"/>
    <circle cx="280" cy="350" r="5"/>
    <circle cx="290" cy="348" r="5"/>
    <circle cx="370" cy="348" r="5"/>
    <circle cx="380" cy="350" r="5"/>
    <circle cx="390" cy="348" r="5"/>
  </g>

  <!-- Typing effect sparkles -->
  <g filter="url(#textGlow)">
    <polygon points="260,330 263,322 266,330 263,333" fill="#D4922A" opacity="0.9"/>
    <polygon points="400,325 403,317 406,325 403,328" fill="#4CAF50" opacity="0.9"/>
    <polygon points="340,320 343,312 346,320 343,323" fill="#4A90A4" opacity="0.8"/>
  </g>

  <!-- Speed lines near hands -->
  <g stroke="#4A90A4" stroke-width="2" opacity="0.5" stroke-linecap="round">
    <line x1="250" y1="340" x2="235" y2="335"/>
    <line x1="250" y1="350" x2="235" y2="350"/>
    <line x1="250" y1="360" x2="235" y2="365"/>
    <line x1="410" y1="340" x2="425" y2="335"/>
    <line x1="410" y1="350" x2="425" y2="350"/>
    <line x1="410" y1="360" x2="425" y2="365"/>
  </g>

  <!-- Protea flower - South African national flower -->
  <g transform="translate(620, 280)">
    <ellipse cx="0" cy="30" rx="20" ry="25" fill="#8B4513"/>
    <ellipse cx="0" cy="25" rx="15" ry="8" fill="#5C3317"/>
    <!-- Protea petals -->
    <path d="M0 20 Q-25 0, -20 -20" fill="none" stroke="#E85A71" stroke-width="6" stroke-linecap="round"/>
    <path d="M0 20 Q-15 -5, -8 -25" fill="none" stroke="#E85A71" stroke-width="6" stroke-linecap="round"/>
    <path d="M0 20 Q0 -10, 0 -28" fill="none" stroke="#E85A71" stroke-width="6" stroke-linecap="round"/>
    <path d="M0 20 Q15 -5, 8 -25" fill="none" stroke="#E85A71" stroke-width="6" stroke-linecap="round"/>
    <path d="M0 20 Q25 0, 20 -20" fill="none" stroke="#E85A71" stroke-width="6" stroke-linecap="round"/>
    <!-- Center -->
    <ellipse cx="0" cy="15" rx="8" ry="6" fill="#FFD700"/>
  </g>

  <!-- Coffee mug on desk -->
  <rect x="700" y="310" width="35" height="40" rx="3" fill="#8B4513"/>
  <ellipse cx="717" cy="310" rx="17" ry="5" fill="#5C3317"/>
  <ellipse cx="717" cy="312" rx="13" ry="3" fill="#3E2723"/>
  <path d="M735 320 Q755 325, 750 340 Q745 355, 735 350" fill="none" stroke="#8B4513" stroke-width="5"/>

  <!-- Steam from coffee -->
  <g stroke="#9CA3AF" stroke-width="2" fill="none" opacity="0.4">
    <path d="M710 300 Q705 290, 710 280"/>
    <path d="M720 300 Q725 290, 720 280"/>
  </g>

  <!-- Decorative text -->
  <text x="550" y="150" font-family="Inter, sans-serif" font-size="36" font-weight="bold" fill="#D4922A" filter="url(#textGlow)">
    Type like a
  </text>
  <text x="550" y="195" font-family="Inter, sans-serif" font-size="42" font-weight="bold" fill="#4A90A4" filter="url(#textGlow)">
    CHACMA!
  </text>

  <!-- Western Cape subtitle -->
  <text x="550" y="220" font-family="Inter, sans-serif" font-size="12" fill="#9CA3AF">
    From the Cape with speed
  </text>
</svg>
